<svg xmlns="http://www.w3.org/2000/svg" width="181" height="120.739" viewBox="0 0 181 120.739">
  <g id="Group_942" data-name="Group 942" transform="translate(-190.748 -1369.381)">
    <text id="_1_442_189" data-name="1,442,189" transform="translate(190.748 1458.12)" fill="#ff3d89" font-size="32" font-family="Megabyte-Bold, Megabyte" font-weight="700" letter-spacing="0.025em"><tspan x="-73.104" y="25">1,442,189</tspan></text>
    <g id="Group_746" data-name="Group 746">
      <g id="Group_745" data-name="Group 745">
        <g id="Group_743" data-name="Group 743">
          <circle id="Ellipse_6" data-name="Ellipse 6" cx="6.108" cy="6.108" r="6.108" transform="translate(255.845 1371.381)" fill="none" stroke="#ff3d89" stroke-miterlimit="10" stroke-width="4"/>
          <path id="Path_1317" data-name="Path 1317" d="M266.583,1389.887h-9.26a2.77,2.77,0,0,0-2.769,2.77v17.7a2.841,2.841,0,0,0,2.841,2.841h.273l.77,19.609h7.03l.77-19.609h.274a2.841,2.841,0,0,0,2.841-2.841v-17.7A2.77,2.77,0,0,0,266.583,1389.887Z" fill="none" stroke="#ff3d89" stroke-miterlimit="10" stroke-width="4"/>
        </g>
        <g id="Group_744" data-name="Group 744">
          <circle id="Ellipse_7" data-name="Ellipse 7" cx="6.108" cy="6.108" r="6.108" transform="translate(280.314 1371.381)" fill="none" stroke="#ff3d89" stroke-miterlimit="10" stroke-width="4"/>
          <path id="Path_1318" data-name="Path 1318" d="M291.052,1389.887h-9.259a2.77,2.77,0,0,0-2.77,2.77l-2.934,25.436a1.132,1.132,0,0,0,1.125,1.263h4.923l.77,13.449h7.03l.77-13.449h4.924a1.132,1.132,0,0,0,1.125-1.263l-2.934-25.436A2.77,2.77,0,0,0,291.052,1389.887Z" fill="none" stroke="#ff3d89" stroke-miterlimit="10" stroke-width="4"/>
        </g>
      </g>
      <rect id="Rectangle_998" data-name="Rectangle 998" width="27.736" height="32.153" transform="translate(273.558 1405.132)" fill="#fff"/>
    </g>
  </g>
</svg>
