<svg xmlns="http://www.w3.org/2000/svg" width="114.868" height="125.787" viewBox="0 0 114.868 125.787">
  <g id="Group_298" data-name="Group 298" transform="translate(-56.476 -3338.494)">
    <g id="Group_292" data-name="Group 292">
      <path id="Path_560" data-name="Path 560" d="M89.152,3421.92a6.672,6.672,0,0,1-4.869,2.086,6.161,6.161,0,0,1-4.7-1.888,7.621,7.621,0,0,1-1.821-5.464V3406.42h5.133v9.571a2.986,2.986,0,0,0,3.08,3.312,3.07,3.07,0,0,0,3.18-3.279v-9.6h5.166v15.864c0,3.08-.861,5.4-2.55,6.889a9.39,9.39,0,0,1-6.524,2.285,15.592,15.592,0,0,1-8.082-2.252l1.789-4.074a11.294,11.294,0,0,0,6.028,1.789c2.55,0,4.173-1.358,4.173-4.14Z" fill="#fff"/>
      <path id="Path_561" data-name="Path 561" d="M118.018,3424.106h-5.2v-26.861h5.2Z" fill="#fff"/>
      <path id="Path_562" data-name="Path 562" d="M125.438,3396.98a3.115,3.115,0,1,1,0,6.227,3.114,3.114,0,1,1,0-6.227Zm2.583,27.126h-5.167V3406.42h5.167Z" fill="#fff"/>
      <path id="Path_563" data-name="Path 563" d="M137.593,3408.374a7.269,7.269,0,0,1,5.332-2.352,6.16,6.16,0,0,1,4.7,1.888,7.619,7.619,0,0,1,1.822,5.464v10.732h-5.134v-10.069c0-1.987-1.126-3.312-3.08-3.312a3.069,3.069,0,0,0-3.179,3.279v10.1H132.89V3406.42h4.6Z" fill="#fff"/>
      <path id="Path_564" data-name="Path 564" d="M171.344,3422.284c0,3.08-.861,5.365-2.584,6.889a9.794,9.794,0,0,1-6.789,2.285,16.87,16.87,0,0,1-8.313-2.252l1.722-4.107a12.374,12.374,0,0,0,6.425,1.822c2.65,0,4.405-1.391,4.405-4.339v-.629a7.246,7.246,0,0,1-5.233,2.02,7.6,7.6,0,0,1-5.961-2.616,9.183,9.183,0,0,1-2.352-6.327,9.038,9.038,0,0,1,2.352-6.359,7.747,7.747,0,0,1,5.994-2.583,7.309,7.309,0,0,1,5.631,2.385l.1-2.053h4.6Zm-13.513-7.22a4.259,4.259,0,1,0,4.272-4.438A4.129,4.129,0,0,0,157.831,3415.064Z" fill="#fff"/>
      <path id="Path_565" data-name="Path 565" d="M81.444,3436.727a3.115,3.115,0,1,1,0,6.227,3.114,3.114,0,1,1,0-6.227Zm2.583,27.125H78.861v-17.685h5.166Z" fill="#fff"/>
      <path id="Path_566" data-name="Path 566" d="M87.871,3446.167c1.689-.1,2.384-.829,2.384-2.716v-2.021h4.836v4.737h4.371v4.437H95.091v6.326c0,1.756.927,2.617,2.782,2.617.364,0,.927-.033,1.656-.1v4.405a11.229,11.229,0,0,1-3.014.4q-3.775,0-5.366-2.186a6.676,6.676,0,0,1-1.225-4.14v-7.32H87.175V3446.2Z" fill="#fff"/>
      <path id="Path_567" data-name="Path 567" d="M105.491,3436.727a3.115,3.115,0,1,1,0,6.227,3.114,3.114,0,1,1,0-6.227Zm2.583,27.125h-5.166v-17.685h5.166Z" fill="#fff"/>
      <path id="Path_568" data-name="Path 568" d="M126.722,3448.22a8.638,8.638,0,0,1,2.318,6.16,10.294,10.294,0,0,1-.232,2.219H116.554a4.334,4.334,0,0,0,4.6,3.246,7.863,7.863,0,0,0,4.471-1.557l2.716,3.18a10.608,10.608,0,0,1-7.518,2.782,9.248,9.248,0,0,1-6.69-2.616,8.818,8.818,0,0,1-2.716-6.625,8.921,8.921,0,0,1,2.683-6.558,8.825,8.825,0,0,1,6.491-2.682A8.032,8.032,0,0,1,126.722,3448.22Zm-2.749,5.067a3.268,3.268,0,0,0-3.478-3.246,3.99,3.99,0,0,0-3.908,3.246Z" fill="#fff"/>
      <path id="Path_569" data-name="Path 569" d="M133.314,3458.321a9.935,9.935,0,0,0,5.1,1.689q1.689,0,1.689-1.093,0-.794-1.689-1.49l-2.351-.961c-2.882-1.191-4.339-3.013-4.339-5.464,0-3.213,2.517-5.233,6.525-5.233a10.321,10.321,0,0,1,6.491,2.02l-2.418,3.511a7.048,7.048,0,0,0-4.107-1.325c-.96,0-1.457.3-1.457.927s.365.994,1.524,1.425l2.086.828c3.147,1.225,4.9,2.947,4.9,5.63,0,3.312-2.749,5.465-7.121,5.465a11.42,11.42,0,0,1-7.187-2.352Z" fill="#fff"/>
    </g>
    <g id="Group_293" data-name="Group 293">
      <path id="Path_570" data-name="Path 570" d="M73.94,3424.333H70.913a13.853,13.853,0,0,1-13.955-13.257A13.665,13.665,0,0,1,70.6,3397.032H73.94a.021.021,0,0,1,.02.021v5.178a.021.021,0,0,1-.02.021H70.862a8.53,8.53,0,0,0-8.664,9.106,8.442,8.442,0,0,0,8.4,7.755H73.94a.021.021,0,0,1,.02.021v5.178A.02.02,0,0,1,73.94,3424.333Z" fill="#fff"/>
    </g>
    <g id="Group_294" data-name="Group 294">
      <path id="Path_571" data-name="Path 571" d="M108.372,3424.333H106.4a9.1,9.1,0,0,1,0-18.2h1.973v5.22H106.4a3.878,3.878,0,1,0,0,7.755h1.973Z" fill="#fff"/>
    </g>
    <g id="Group_295" data-name="Group 295">
      <path id="Path_572" data-name="Path 572" d="M73.96,3464.281H70.6a13.651,13.651,0,0,1,0-27.3H73.96v5.22H70.6a8.431,8.431,0,1,0,0,16.861H73.96Z" fill="#fff"/>
    </g>
    <g id="Group_297" data-name="Group 297">
      <path id="Path_573" data-name="Path 573" d="M125.252,3361.54A23.045,23.045,0,0,1,148.3,3338.5H79.521v46.091H148.3A23.046,23.046,0,0,1,125.252,3361.54Z" fill="#bfbfbf"/>
      <g id="Group_296" data-name="Group 296">
        <path id="Path_574" data-name="Path 574" d="M148.3,3361.54H125.252a23.046,23.046,0,0,0,46.092,0Z" fill="#ff8000"/>
        <path id="Path_575" data-name="Path 575" d="M148.3,3338.5a23.045,23.045,0,0,0-23.046,23.045h46.092A23.045,23.045,0,0,0,148.3,3338.5Z" fill="#ff3d89"/>
      </g>
      <path id="Path_576" data-name="Path 576" d="M79.521,3338.494a23.046,23.046,0,0,1,0,46.092Z" fill="#00ae42"/>
      <path id="Path_577" data-name="Path 577" d="M79.521,3384.586a23.046,23.046,0,0,1,0-46.092Z" fill="#2179ff"/>
    </g>
  </g>
</svg>
