<svg xmlns="http://www.w3.org/2000/svg" width="459.407" height="61.61" viewBox="0 0 459.407 61.61">
  <g id="Group_683" data-name="Group 683" transform="translate(-55.689 -124.988)">
    <g id="Group_438" data-name="Group 438" transform="translate(-0.344 -0.527)">
      <g id="Group_437" data-name="Group 437">
        <g id="Group_435" data-name="Group 435">
          <path id="Path_816" data-name="Path 816" d="M275.094,170.774a8.915,8.915,0,0,1-6.507,2.789,8.24,8.24,0,0,1-6.287-2.523c-1.638-1.726-2.435-4.161-2.435-7.3V150.056h6.862V162.85c0,2.612,1.506,4.427,4.117,4.427a4.1,4.1,0,0,0,4.25-4.383V150.056H282v21.205c0,4.117-1.151,7.216-3.409,9.208a12.549,12.549,0,0,1-8.722,3.055,20.83,20.83,0,0,1-10.8-3.01l2.39-5.445a15.1,15.1,0,0,0,8.057,2.39c3.409,0,5.578-1.815,5.578-5.534Z" fill="#fff"/>
          <path id="Path_817" data-name="Path 817" d="M313.679,173.7h-6.95v-35.9h6.95Z" fill="#fff"/>
          <path id="Path_818" data-name="Path 818" d="M323.6,137.438a4.164,4.164,0,1,1,0,8.323,4.162,4.162,0,1,1,0-8.323ZM327.05,173.7h-6.906v-23.64h6.906Z" fill="#fff"/>
          <path id="Path_819" data-name="Path 819" d="M339.845,152.667a9.719,9.719,0,0,1,7.128-3.143,8.234,8.234,0,0,1,6.286,2.524c1.638,1.727,2.435,4.161,2.435,7.3V173.7h-6.862V160.238c0-2.657-1.505-4.427-4.117-4.427a4.1,4.1,0,0,0-4.25,4.382v13.5h-6.906v-23.64h6.153Z" fill="#fff"/>
          <path id="Path_820" data-name="Path 820" d="M384.959,171.261c0,4.117-1.151,7.172-3.453,9.208a13.089,13.089,0,0,1-9.076,3.055,22.545,22.545,0,0,1-11.112-3.01l2.3-5.49a16.532,16.532,0,0,0,8.588,2.435c3.542,0,5.888-1.859,5.888-5.8v-.841a9.686,9.686,0,0,1-6.995,2.7,10.156,10.156,0,0,1-7.968-3.5,12.276,12.276,0,0,1-3.144-8.456,12.076,12.076,0,0,1,3.144-8.5,10.355,10.355,0,0,1,8.013-3.453,9.765,9.765,0,0,1,7.525,3.187l.133-2.744h6.154ZM366.9,161.61a5.52,5.52,0,0,0,5.71,5.844c3.365,0,5.667-2.391,5.667-5.888s-2.3-5.888-5.667-5.888C369.2,155.678,366.9,158.113,366.9,161.61Z" fill="#fff"/>
          <path id="Path_821" data-name="Path 821" d="M254.761,174h-4.046a18.518,18.518,0,0,1-18.654-17.72A18.266,18.266,0,0,1,250.3,137.508h4.461a.028.028,0,0,1,.028.028v6.921a.029.029,0,0,1-.028.028h-4.114a11.4,11.4,0,0,0-11.581,12.171A11.284,11.284,0,0,0,250.3,167.023h4.461a.029.029,0,0,1,.028.028v6.921A.028.028,0,0,1,254.761,174Z" fill="#fff"/>
          <path id="Path_822" data-name="Path 822" d="M300.786,174h-2.637a12.16,12.16,0,0,1,0-24.32h2.637v6.976h-2.637a5.183,5.183,0,1,0,0,10.367h2.637Z" fill="#fff"/>
        </g>
        <g id="Group_436" data-name="Group 436">
          <path id="Path_823" data-name="Path 823" d="M430.125,137.438a4.164,4.164,0,1,1,0,8.323,4.162,4.162,0,1,1,0-8.323Zm3.453,36.257h-6.906V150.056h6.906Z" fill="#fff"/>
          <path id="Path_824" data-name="Path 824" d="M438.716,150.056c2.257-.133,3.187-1.108,3.187-3.631v-2.7h6.463v6.331h5.844v5.931h-5.844v8.456c0,2.346,1.24,3.5,3.719,3.5.487,0,1.24-.043,2.214-.133V173.7a14.971,14.971,0,0,1-4.029.532q-5.046,0-7.172-2.922a8.929,8.929,0,0,1-1.638-5.534v-9.784h-3.674V150.1Z" fill="#fff"/>
          <path id="Path_825" data-name="Path 825" d="M462.268,137.438a4.164,4.164,0,1,1,0,8.323,4.162,4.162,0,1,1,0-8.323Zm3.454,36.257h-6.907V150.056h6.907Z" fill="#fff"/>
          <path id="Path_826" data-name="Path 826" d="M490.647,152.8a11.546,11.546,0,0,1,3.1,8.234,13.825,13.825,0,0,1-.31,2.967h-16.38c.885,2.877,2.921,4.338,6.153,4.338a10.512,10.512,0,0,0,5.977-2.081l3.63,4.25a14.177,14.177,0,0,1-10.049,3.719,12.359,12.359,0,0,1-8.943-3.5,11.785,11.785,0,0,1-3.63-8.854,11.922,11.922,0,0,1,3.586-8.766,11.793,11.793,0,0,1,8.677-3.586A10.736,10.736,0,0,1,490.647,152.8Zm-3.675,6.773a4.367,4.367,0,0,0-4.648-4.338,5.333,5.333,0,0,0-5.224,4.338Z" fill="#fff"/>
          <path id="Path_827" data-name="Path 827" d="M499.458,166.3a13.287,13.287,0,0,0,6.818,2.257q2.258,0,2.258-1.461,0-1.062-2.258-1.992l-3.143-1.284c-3.852-1.593-5.8-4.028-5.8-7.3,0-4.294,3.364-6.995,8.721-6.995a13.8,13.8,0,0,1,8.677,2.7l-3.232,4.692a9.424,9.424,0,0,0-5.49-1.771c-1.283,0-1.947.4-1.947,1.24s.487,1.328,2.036,1.9l2.789,1.108c4.206,1.637,6.552,3.939,6.552,7.525,0,4.428-3.674,7.305-9.518,7.305a15.272,15.272,0,0,1-9.607-3.143Z" fill="#fff"/>
          <path id="Path_828" data-name="Path 828" d="M420.122,174.268h-4.489a18.246,18.246,0,0,1,0-36.492h4.489v6.977h-4.489a11.269,11.269,0,0,0,0,22.538h4.489Z" fill="#fff"/>
        </g>
      </g>
    </g>
    <g id="Group_440" data-name="Group 440" transform="translate(-0.344 -0.527)">
      <path id="Path_829" data-name="Path 829" d="M147.966,156.32a30.8,30.8,0,0,1,30.8-30.8H86.838v61.609H178.77A30.8,30.8,0,0,1,147.966,156.32Z" fill="#bfbfbf"/>
      <g id="Group_439" data-name="Group 439">
        <path id="Path_830" data-name="Path 830" d="M178.77,156.32h-30.8a30.8,30.8,0,1,0,61.609,0Z" fill="#ff8000"/>
        <path id="Path_831" data-name="Path 831" d="M178.77,125.516a30.8,30.8,0,0,0-30.8,30.8h61.609A30.8,30.8,0,0,0,178.77,125.516Z" fill="#ff3d89"/>
      </g>
      <path id="Path_832" data-name="Path 832" d="M86.838,125.515a30.805,30.805,0,0,1,0,61.61Z" fill="#00ae42"/>
      <path id="Path_833" data-name="Path 833" d="M86.838,187.125a30.805,30.805,0,0,1,0-61.61Z" fill="#2179ff"/>
    </g>
  </g>
</svg>
