<svg xmlns="http://www.w3.org/2000/svg" width="445.686" height="60.224" viewBox="0 0 445.686 60.224">
  <g id="Group_75" data-name="Group 75" transform="translate(-99.08 -124.688)">
    <g id="Group_17" data-name="Group 17" transform="translate(43.396 4)">
      <path id="Path_17" data-name="Path 17" d="M145.55,150.8a30.112,30.112,0,0,1,30.112-30.112H85.8v60.224h89.866A30.113,30.113,0,0,1,145.55,150.8Z" fill="#bfbfbf"/>
      <g id="Group_16" data-name="Group 16">
        <path id="Path_18" data-name="Path 18" d="M175.662,150.8H145.55a30.112,30.112,0,0,0,60.225,0Z" fill="#ff8000"/>
        <path id="Path_19" data-name="Path 19" d="M175.662,120.688A30.112,30.112,0,0,0,145.55,150.8h60.225A30.112,30.112,0,0,0,175.662,120.688Z" fill="#ff3d89"/>
      </g>
      <path id="Path_20" data-name="Path 20" d="M85.8,120.688a30.112,30.112,0,1,1,0,60.224Z" fill="#00ae42"/>
      <path id="Path_21" data-name="Path 21" d="M85.8,180.912a30.112,30.112,0,1,1,0-60.224Z" fill="#2179ff"/>
    </g>
    <g id="Group_15" data-name="Group 15" transform="translate(40)">
      <g id="Group_14" data-name="Group 14">
        <g id="Group_12" data-name="Group 12">
          <path id="Path_4" data-name="Path 4" d="M269.822,164.929a8.718,8.718,0,0,1-6.362,2.726,8.053,8.053,0,0,1-6.145-2.466c-1.6-1.688-2.38-4.068-2.38-7.14V144.676h6.708v12.507c0,2.553,1.471,4.327,4.024,4.327a4.011,4.011,0,0,0,4.155-4.284v-12.55h6.751V165.4c0,4.025-1.125,7.054-3.332,9a12.268,12.268,0,0,1-8.526,2.986,20.367,20.367,0,0,1-10.559-2.942l2.337-5.323a14.761,14.761,0,0,0,7.876,2.337c3.332,0,5.453-1.775,5.453-5.409Z" fill="#262626"/>
          <path id="Path_5" data-name="Path 5" d="M307.54,167.785h-6.8v-35.1h6.8Z" fill="#262626"/>
          <path id="Path_6" data-name="Path 6" d="M317.234,132.342a4.07,4.07,0,1,1,0,8.136,4.069,4.069,0,1,1,0-8.136Zm3.376,35.443h-6.751V144.676h6.751Z" fill="#262626"/>
          <path id="Path_7" data-name="Path 7" d="M333.117,147.229a9.5,9.5,0,0,1,6.968-3.072,8.051,8.051,0,0,1,6.145,2.467c1.6,1.688,2.38,4.067,2.38,7.14v14.021H341.9V154.63c0-2.6-1.471-4.328-4.024-4.328a4.011,4.011,0,0,0-4.155,4.284v13.2h-6.751V144.676h6.015Z" fill="#262626"/>
          <path id="Path_8" data-name="Path 8" d="M377.217,165.4c0,4.025-1.125,7.011-3.375,9a12.794,12.794,0,0,1-8.872,2.986,22.04,22.04,0,0,1-10.862-2.942l2.251-5.367a16.163,16.163,0,0,0,8.395,2.381c3.462,0,5.756-1.818,5.756-5.669v-.823a9.469,9.469,0,0,1-6.838,2.64,9.931,9.931,0,0,1-7.79-3.418,12,12,0,0,1-3.072-8.266,11.805,11.805,0,0,1,3.072-8.309,10.122,10.122,0,0,1,7.833-3.376,9.55,9.55,0,0,1,7.357,3.116l.13-2.683h6.015Zm-17.656-9.434a5.4,5.4,0,0,0,5.582,5.712c3.289,0,5.54-2.336,5.54-5.755s-2.251-5.756-5.54-5.756C361.811,150.172,359.561,152.552,359.561,155.971Z" fill="#262626"/>
          <path id="Path_9" data-name="Path 9" d="M249.945,168.083H245.99a18.1,18.1,0,0,1-18.234-17.323,17.855,17.855,0,0,1,17.828-18.35h4.361a.028.028,0,0,1,.027.028V139.2a.027.027,0,0,1-.027.027h-4.021a11.146,11.146,0,0,0-11.321,11.9,11.032,11.032,0,0,0,10.981,10.134h4.361a.027.027,0,0,1,.027.027v6.765A.028.028,0,0,1,249.945,168.083Z" fill="#262626"/>
          <path id="Path_10" data-name="Path 10" d="M294.936,168.083h-2.578a11.887,11.887,0,0,1,0-23.774h2.578v6.82h-2.578a5.067,5.067,0,1,0,0,10.134h2.578Z" fill="#262626"/>
        </g>
        <g id="Group_13" data-name="Group 13">
          <path id="Path_11" data-name="Path 11" d="M421.368,132.342a4.07,4.07,0,1,1,0,8.136,4.069,4.069,0,1,1,0-8.136Zm3.376,35.443h-6.751V144.676h6.751Z" fill="#262626"/>
          <path id="Path_12" data-name="Path 12" d="M429.766,144.676c2.207-.13,3.116-1.082,3.116-3.549v-2.639H439.2v6.188h5.712v5.8H439.2v8.265c0,2.294,1.212,3.419,3.635,3.419.476,0,1.212-.043,2.164-.13v5.756a14.672,14.672,0,0,1-3.938.519q-4.934,0-7.011-2.856a8.721,8.721,0,0,1-1.6-5.409v-9.564h-3.592v-5.756Z" fill="#262626"/>
          <path id="Path_13" data-name="Path 13" d="M452.789,132.342a4.07,4.07,0,1,1,0,8.136,4.069,4.069,0,1,1,0-8.136Zm3.376,35.443h-6.751V144.676h6.751Z" fill="#262626"/>
          <path id="Path_14" data-name="Path 14" d="M480.53,147.359a11.285,11.285,0,0,1,3.029,8.049,13.452,13.452,0,0,1-.3,2.9H467.244c.866,2.812,2.857,4.24,6.016,4.24a10.283,10.283,0,0,0,5.842-2.033l3.549,4.154a13.857,13.857,0,0,1-9.824,3.635,12.082,12.082,0,0,1-8.742-3.418,11.522,11.522,0,0,1-3.548-8.656,11.654,11.654,0,0,1,3.505-8.568,11.531,11.531,0,0,1,8.482-3.505A10.493,10.493,0,0,1,480.53,147.359Zm-3.592,6.621a4.269,4.269,0,0,0-4.544-4.241,5.213,5.213,0,0,0-5.106,4.241Z" fill="#262626"/>
          <path id="Path_15" data-name="Path 15" d="M489.144,160.558a12.98,12.98,0,0,0,6.664,2.207q2.208,0,2.207-1.428,0-1.038-2.207-1.948l-3.072-1.255c-3.765-1.557-5.669-3.937-5.669-7.14,0-4.2,3.289-6.837,8.525-6.837a13.493,13.493,0,0,1,8.482,2.639l-3.159,4.587a9.212,9.212,0,0,0-5.366-1.73c-1.255,0-1.9.389-1.9,1.211s.475,1.3,1.99,1.861l2.727,1.082c4.111,1.6,6.4,3.852,6.4,7.357,0,4.328-3.592,7.14-9.3,7.14a14.93,14.93,0,0,1-9.391-3.072Z" fill="#262626"/>
          <path id="Path_16" data-name="Path 16" d="M411.59,168.345H407.2a17.836,17.836,0,0,1,0-35.672h4.388v6.82H407.2a11.016,11.016,0,1,0,0,22.031h4.388Z" fill="#262626"/>
        </g>
      </g>
    </g>
  </g>
</svg>
