<svg xmlns="http://www.w3.org/2000/svg" width="222.96" height="33.354" viewBox="0 0 222.96 33.354">
  <g id="Group_453" data-name="Group 453" transform="translate(-56.033 -42.355)">
    <g id="Group_452" data-name="Group 452">
      <g id="Group_449" data-name="Group 449">
        <g id="Group_442" data-name="Group 442">
          <rect id="Rectangle_924" data-name="Rectangle 924" width="4.361" height="20.748" transform="translate(93.38 48.816)" fill="#fff"/>
        </g>
        <g id="Group_443" data-name="Group 443">
          <path id="Path_834" data-name="Path 834" d="M99.862,48.816h14.956l-.686,3.463h-4.956V69.564h-4.239V52.279H99.862Z" fill="#fff"/>
        </g>
        <g id="Group_448" data-name="Group 448">
          <g id="Group_444" data-name="Group 444">
            <path id="Path_835" data-name="Path 835" d="M116.875,48.778h4.179c1.2,0,2.779.06,3.611.12a7.228,7.228,0,0,1,4.541,2.077c1.907,1.891,2.836,4.572,2.836,8.332a11.879,11.879,0,0,1-2.092,7.128,7.3,7.3,0,0,1-5.044,3.009c-.776.06-1.763.12-2.985.12h-5.046Zm4.238,3.309V66.134h2.239c2.746,0,4-2.015,4-6.439,0-2.434-.209-4.479-1.044-5.864a3.427,3.427,0,0,0-3.284-1.744Z" fill="#fff"/>
          </g>
          <g id="Group_445" data-name="Group 445">
            <path id="Path_836" data-name="Path 836" d="M134.1,48.757h5.463c3.519,0,4.6.356,5.762,1.013a5.828,5.828,0,0,1,2.984,5.373,6.458,6.458,0,0,1-3.582,6.092,8.613,8.613,0,0,1-4.148.686h-2.3v7.643H134.1Zm4.178,3.371v6.388h2.179c1.7,0,2.21-.208,2.779-1.072a3.955,3.955,0,0,0,.507-2.21c0-1.942-1.047-3.106-2.809-3.106Z" fill="#fff"/>
          </g>
          <g id="Group_446" data-name="Group 446">
            <path id="Path_837" data-name="Path 837" d="M76.965,42.909l-.8,3.036,0,0v0l-.536,8.02-1.742.6h0l-.461,1.737a2.809,2.809,0,1,1-1.434,5.432l-.454,1.723.008-.005,1.212,1.381L69.262,72.07l-.814,3.082a16.674,16.674,0,0,0,8.517-32.243m1.214,20.278L87.4,63.8a15.383,15.383,0,0,1-6.188,8.125Zm8.292-11.175a15.4,15.4,0,0,1,1.376,10.1l-8.315-4.018Zm-.707,10.454-8.022-.533-.6-1.731,0-.008.023-.022,1.376-1.2Zm-7.429-4.95-1.654-.8-.01-.005v-.03L76.8,54.86l7.586-2.642Zm-1.6,1.4a3.828,3.828,0,0,0-.121-.872l.72.345Zm-.317,2.929-.779-.053a3.641,3.641,0,0,0,.518-.687Zm-1.409,1.148.006-.015.017,0,1.821.119L79.5,70.689,74.208,64.65Zm-.244-7.426.778-.268-.057.813a3.98,3.98,0,0,0-.721-.545m2.118-2.034.62-9.193a15.383,15.383,0,0,1,8.088,6.165Zm-4.07,9.523a4.208,4.208,0,0,0,.864-.114l-.345.707Zm.817,2.788,6.09,6.949A15.4,15.4,0,0,1,69.613,74.17Z" fill="#fff"/>
          </g>
          <g id="Group_447" data-name="Group 447">
            <path id="Path_838" data-name="Path 838" d="M69,56.19l.263.755a3.957,3.957,0,0,1,.537-.7Zm-.907,3.457.7.339a4.129,4.129,0,0,1-.113-.854Zm2.309-4.59.015-.029.795-1.644L65.915,47.34l2.645,7.594,1.83.123Zm-1.776,8.12.124-1.837,0-.016-.016-.009-1.646-.793-6.045,5.292ZM76.341,42.76a16.618,16.618,0,0,0-11.456,1.546l6.9,7.884ZM66.89,59.07l1.383-1.21.008-.005-.01-.029-.6-1.724-8.017-.534Zm5.194-4.685-.355.735a4.08,4.08,0,0,1,.9-.117Zm-15.319-.234,10.467.694-3.445-9.9a16.571,16.571,0,0,0-7.024,9.212h0l0-.01m13.166,7.8-.051.784.745-.255a4.367,4.367,0,0,1-.694-.529M76.963,42.9l-.8,3.038,0,0,0,.007-3.5,7.237,1.217,1.387h0l-.463,1.738a2.808,2.808,0,0,0-1.431,5.43l-.457,1.724v-.011l-1.739.6L69.26,72.07l-.814,3.083,0,0,8.517-32.243ZM58.625,67.953a16.593,16.593,0,0,0,9.218,7.022L68.537,64.5ZM56.442,55.375a16.591,16.591,0,0,0,1.553,11.484l7.9-6.914Z" fill="#fff"/>
          </g>
        </g>
      </g>
      <g id="Group_450" data-name="Group 450">
        <path id="Path_839" data-name="Path 839" d="M164.625,49.46v6.526h-.9V49.46Z" fill="#fff"/>
        <path id="Path_840" data-name="Path 840" d="M169.887,51.288a1.575,1.575,0,0,1,.383,1.117v3.581H169.4V52.53a1.114,1.114,0,0,0-.2-.751.763.763,0,0,0-.587-.217,1.136,1.136,0,0,0-.7.229,2.356,2.356,0,0,0-.569.652v3.543h-.872V50.994h.75l.075.74a1.92,1.92,0,0,1,.66-.625,1.671,1.671,0,0,1,.865-.227A1.389,1.389,0,0,1,169.887,51.288Z" fill="#fff"/>
        <path id="Path_841" data-name="Path 841" d="M174.3,51.023a2.687,2.687,0,0,1,.777.426l-.37.55a3.026,3.026,0,0,0-.649-.322,1.973,1.973,0,0,0-.648-.1,1.167,1.167,0,0,0-.674.173.6.6,0,0,0-.014.954,2.721,2.721,0,0,0,.838.33,3,3,0,0,1,1.246.568,1.24,1.24,0,0,1,.413.987,1.276,1.276,0,0,1-.575,1.126,2.413,2.413,0,0,1-1.4.39,2.757,2.757,0,0,1-1.885-.656l.463-.531a2.259,2.259,0,0,0,1.4.485,1.334,1.334,0,0,0,.781-.2.642.642,0,0,0,.289-.555.757.757,0,0,0-.1-.413.883.883,0,0,0-.359-.274,5.068,5.068,0,0,0-.75-.251,2.549,2.549,0,0,1-1.152-.556,1.21,1.21,0,0,1-.353-.892,1.161,1.161,0,0,1,.231-.705,1.5,1.5,0,0,1,.645-.492,2.3,2.3,0,0,1,.923-.175A2.8,2.8,0,0,1,174.3,51.023Z" fill="#fff"/>
        <path id="Path_842" data-name="Path 842" d="M178.965,55.758a1.915,1.915,0,0,1-1.118.343,1.318,1.318,0,0,1-.99-.366,1.461,1.461,0,0,1-.355-1.057V51.667h-.87v-.673h.87V49.866l.873-.1v1.232h1.181l-.093.673h-1.088V54.64a.933.933,0,0,0,.135.565.551.551,0,0,0,.461.175,1.431,1.431,0,0,0,.662-.2Z" fill="#fff"/>
        <path id="Path_843" data-name="Path 843" d="M180.737,48.769a.59.59,0,0,1,.169.426.567.567,0,0,1-.169.421.619.619,0,0,1-.447.166.594.594,0,0,1-.434-.166.558.558,0,0,1-.172-.421.583.583,0,0,1,.606-.6A.609.609,0,0,1,180.737,48.769Zm0,2.225v4.992h-.872V50.994Z" fill="#fff"/>
        <path id="Path_844" data-name="Path 844" d="M185.055,55.758a1.912,1.912,0,0,1-1.117.343,1.315,1.315,0,0,1-.99-.366,1.453,1.453,0,0,1-.355-1.057V51.667h-.872v-.673h.872V49.866l.87-.1v1.232h1.185l-.094.673h-1.091V54.64a.931.931,0,0,0,.138.565.551.551,0,0,0,.461.175,1.431,1.431,0,0,0,.661-.2Z" fill="#fff"/>
        <path id="Path_845" data-name="Path 845" d="M189.667,55.986h-.748l-.067-.776a1.9,1.9,0,0,1-.651.676,1.764,1.764,0,0,1-.9.215,1.325,1.325,0,0,1-1.021-.4,1.586,1.586,0,0,1-.371-1.126V50.994h.872v3.488a1.124,1.124,0,0,0,.18.723.733.733,0,0,0,.587.212,1.483,1.483,0,0,0,1.25-.861V50.994h.871Z" fill="#fff"/>
        <path id="Path_846" data-name="Path 846" d="M193.987,55.758a1.912,1.912,0,0,1-1.119.343,1.321,1.321,0,0,1-.989-.366,1.457,1.457,0,0,1-.355-1.057V51.667h-.871v-.673h.871V49.866l.872-.1v1.232h1.183l-.094.673H192.4V54.64a.924.924,0,0,0,.138.565.547.547,0,0,0,.459.175,1.441,1.441,0,0,0,.663-.2Z" fill="#fff"/>
        <path id="Path_847" data-name="Path 847" d="M198.5,53.79h-3.184A1.956,1.956,0,0,0,195.729,55a1.21,1.21,0,0,0,.93.388,1.981,1.981,0,0,0,.662-.106,2.56,2.56,0,0,0,.635-.332l.378.522a2.755,2.755,0,0,1-1.743.627,2.028,2.028,0,0,1-1.625-.684,2.8,2.8,0,0,1-.581-1.874,3.516,3.516,0,0,1,.252-1.377,2.126,2.126,0,0,1,.719-.944,1.82,1.82,0,0,1,1.1-.34,1.851,1.851,0,0,1,1.525.652,2.8,2.8,0,0,1,.529,1.81C198.513,53.488,198.507,53.637,198.5,53.79Zm-.844-.7a1.85,1.85,0,0,0-.293-1.127,1.036,1.036,0,0,0-.883-.388q-1.069,0-1.164,1.573h2.34Z" fill="#fff"/>
        <path id="Path_848" data-name="Path 848" d="M203.544,49.757a.76.76,0,0,0-.171.547v.69h1.212l-.1.673h-1.117v4.319H202.5V51.667h-.89v-.673h.89v-.681a1.364,1.364,0,0,1,.412-1.039,1.6,1.6,0,0,1,1.151-.392,2.707,2.707,0,0,1,.611.063,3.48,3.48,0,0,1,.581.192l-.273.635a2.131,2.131,0,0,0-.872-.189A.775.775,0,0,0,203.544,49.757Z" fill="#fff"/>
        <path id="Path_849" data-name="Path 849" d="M209,51.582a2.88,2.88,0,0,1,.582,1.9,3.316,3.316,0,0,1-.265,1.368,2.065,2.065,0,0,1-.767.919,2.141,2.141,0,0,1-1.194.328,2.02,2.02,0,0,1-1.639-.7,2.881,2.881,0,0,1-.586-1.9,3.281,3.281,0,0,1,.266-1.368,2.092,2.092,0,0,1,.767-.92,2.174,2.174,0,0,1,1.2-.324A2,2,0,0,1,209,51.582Zm-2.931,1.912q0,1.906,1.287,1.9t1.289-1.913q0-1.905-1.279-1.9Q206.073,51.582,206.073,53.494Z" fill="#fff"/>
        <path id="Path_850" data-name="Path 850" d="M213.688,50.938l-.162.853a1.775,1.775,0,0,0-.435-.057.92.92,0,0,0-.748.342,2.517,2.517,0,0,0-.445,1.06v2.85h-.872V50.994h.748l.085,1.015a1.918,1.918,0,0,1,.54-.846,1.214,1.214,0,0,1,.8-.281A2.028,2.028,0,0,1,213.688,50.938Z" fill="#fff"/>
        <path id="Path_851" data-name="Path 851" d="M221.094,49.46l-.094.767h-1.81v5.759h-.9V50.227h-1.856V49.46Z" fill="#fff"/>
        <path id="Path_852" data-name="Path 852" d="M224.466,50.938l-.161.853a1.788,1.788,0,0,0-.435-.057.922.922,0,0,0-.748.342,2.5,2.5,0,0,0-.446,1.06v2.85H221.8V50.994h.748l.086,1.015a1.925,1.925,0,0,1,.539-.846,1.216,1.216,0,0,1,.8-.281A2.028,2.028,0,0,1,224.466,50.938Z" fill="#fff"/>
        <path id="Path_853" data-name="Path 853" d="M228.594,55.27a.626.626,0,0,0,.315.222l-.2.609a1.348,1.348,0,0,1-.625-.219,1,1,0,0,1-.35-.532,1.674,1.674,0,0,1-1.486.751,1.585,1.585,0,0,1-1.165-.419,1.6,1.6,0,0,1,.144-2.311,2.693,2.693,0,0,1,1.625-.426h.768v-.368a.963.963,0,0,0-.255-.757,1.152,1.152,0,0,0-.787-.228,4.344,4.344,0,0,0-1.344.265l-.221-.635a5.024,5.024,0,0,1,1.727-.34,1.786,1.786,0,0,1,1.315.431,1.643,1.643,0,0,1,.437,1.225v2.284A.794.794,0,0,0,228.594,55.27Zm-.974-.6V53.523h-.654q-1.383,0-1.382,1.024a.941.941,0,0,0,.217.673.858.858,0,0,0,.644.225A1.3,1.3,0,0,0,227.62,54.671Z" fill="#fff"/>
        <path id="Path_854" data-name="Path 854" d="M233.7,51.288a1.562,1.562,0,0,1,.384,1.117v3.581h-.871V52.53a1.131,1.131,0,0,0-.2-.751.771.771,0,0,0-.589-.217,1.143,1.143,0,0,0-.7.229,2.336,2.336,0,0,0-.567.652v3.543h-.873V50.994h.75l.075.74a1.912,1.912,0,0,1,.657-.625,1.686,1.686,0,0,1,.867-.227A1.384,1.384,0,0,1,233.7,51.288Z" fill="#fff"/>
        <path id="Path_855" data-name="Path 855" d="M238.1,51.023a2.644,2.644,0,0,1,.776.426l-.367.55a3.026,3.026,0,0,0-.649-.322,1.974,1.974,0,0,0-.651-.1,1.159,1.159,0,0,0-.671.173.6.6,0,0,0-.014.954,2.708,2.708,0,0,0,.839.33,3.018,3.018,0,0,1,1.245.568,1.242,1.242,0,0,1,.411.987,1.274,1.274,0,0,1-.572,1.126,2.422,2.422,0,0,1-1.4.39,2.761,2.761,0,0,1-1.886-.656l.465-.531a2.257,2.257,0,0,0,1.4.485,1.334,1.334,0,0,0,.781-.2.645.645,0,0,0,.287-.555.74.74,0,0,0-.1-.413.873.873,0,0,0-.36-.274,5.01,5.01,0,0,0-.747-.251,2.55,2.55,0,0,1-1.151-.556,1.2,1.2,0,0,1-.355-.892,1.174,1.174,0,0,1,.231-.705,1.511,1.511,0,0,1,.645-.492,2.293,2.293,0,0,1,.924-.175A2.781,2.781,0,0,1,238.1,51.023Z" fill="#fff"/>
        <path id="Path_856" data-name="Path 856" d="M243.95,51.562a3.509,3.509,0,0,1,.445,1.924,3.213,3.213,0,0,1-.513,1.894,1.671,1.671,0,0,1-1.448.721,1.611,1.611,0,0,1-1.309-.57V57.9l-.871.1V50.994H241l.066.673a1.878,1.878,0,0,1,.664-.581,1.707,1.707,0,0,1,.812-.2A1.558,1.558,0,0,1,243.95,51.562Zm-.494,1.924q0-1.911-1.127-1.913a1.129,1.129,0,0,0-.672.218,2.165,2.165,0,0,0-.532.557v2.435a1.356,1.356,0,0,0,.473.451,1.29,1.29,0,0,0,.625.156C243.046,55.39,243.456,54.753,243.456,53.486Z" fill="#fff"/>
        <path id="Path_857" data-name="Path 857" d="M249.39,51.582a2.88,2.88,0,0,1,.582,1.9,3.349,3.349,0,0,1-.264,1.368,2.086,2.086,0,0,1-.768.919,2.133,2.133,0,0,1-1.193.328,2.014,2.014,0,0,1-1.638-.7,2.865,2.865,0,0,1-.588-1.9,3.312,3.312,0,0,1,.266-1.368,2.079,2.079,0,0,1,.767-.92,2.176,2.176,0,0,1,1.2-.324A2,2,0,0,1,249.39,51.582Zm-2.931,1.912q0,1.906,1.288,1.9t1.289-1.913q0-1.905-1.281-1.9Q246.457,51.582,246.459,53.494Z" fill="#fff"/>
        <path id="Path_858" data-name="Path 858" d="M254.075,50.938l-.161.853a1.8,1.8,0,0,0-.437-.057.92.92,0,0,0-.748.342,2.5,2.5,0,0,0-.445,1.06v2.85h-.872V50.994h.749l.084,1.015a1.91,1.91,0,0,1,.541-.846,1.21,1.21,0,0,1,.795-.281A2.042,2.042,0,0,1,254.075,50.938Z" fill="#fff"/>
        <path id="Path_859" data-name="Path 859" d="M257.586,55.758a1.908,1.908,0,0,1-1.117.343,1.312,1.312,0,0,1-.988-.366,1.449,1.449,0,0,1-.356-1.057V51.667h-.871v-.673h.871V49.866l.872-.1v1.232h1.183l-.1.673H256V54.64a.932.932,0,0,0,.136.565.55.55,0,0,0,.46.175,1.434,1.434,0,0,0,.662-.2Z" fill="#fff"/>
        <path id="Path_860" data-name="Path 860" d="M261.887,55.27a.623.623,0,0,0,.314.222l-.2.609a1.352,1.352,0,0,1-.625-.219.993.993,0,0,1-.349-.532,1.676,1.676,0,0,1-1.487.751,1.593,1.593,0,0,1-1.166-.419,1.456,1.456,0,0,1-.425-1.089,1.431,1.431,0,0,1,.572-1.222,2.691,2.691,0,0,1,1.625-.426h.767v-.368a.967.967,0,0,0-.256-.757,1.149,1.149,0,0,0-.784-.228,4.349,4.349,0,0,0-1.346.265l-.217-.635a4.985,4.985,0,0,1,1.722-.34,1.79,1.79,0,0,1,1.316.431,1.643,1.643,0,0,1,.437,1.225v2.284A.785.785,0,0,0,261.887,55.27Zm-.975-.6V53.523h-.654q-1.383,0-1.383,1.024a.928.928,0,0,0,.219.673.856.856,0,0,0,.643.225A1.3,1.3,0,0,0,260.912,54.671Z" fill="#fff"/>
        <path id="Path_861" data-name="Path 861" d="M266.093,55.758a1.919,1.919,0,0,1-1.117.343,1.321,1.321,0,0,1-.991-.366,1.453,1.453,0,0,1-.355-1.057V51.667h-.872v-.673h.872V49.866l.872-.1v1.232h1.183l-.094.673H264.5V54.64a.925.925,0,0,0,.136.565.551.551,0,0,0,.459.175,1.448,1.448,0,0,0,.665-.2Z" fill="#fff"/>
        <path id="Path_862" data-name="Path 862" d="M267.864,48.769a.583.583,0,0,1,.17.426.561.561,0,0,1-.17.421.617.617,0,0,1-.446.166.6.6,0,0,1-.434-.166.558.558,0,0,1-.172-.421.583.583,0,0,1,.606-.6A.606.606,0,0,1,267.864,48.769Zm0,2.225v4.992h-.872V50.994Z" fill="#fff"/>
        <path id="Path_863" data-name="Path 863" d="M273.172,51.582a2.875,2.875,0,0,1,.583,1.9,3.316,3.316,0,0,1-.265,1.368,2.067,2.067,0,0,1-.768.919,2.135,2.135,0,0,1-1.193.328,2.018,2.018,0,0,1-1.639-.7,2.88,2.88,0,0,1-.586-1.9,3.312,3.312,0,0,1,.266-1.368,2.083,2.083,0,0,1,.766-.92,2.179,2.179,0,0,1,1.2-.324A2,2,0,0,1,273.172,51.582Zm-2.93,1.912q0,1.906,1.287,1.9t1.289-1.913c0-1.27-.428-1.9-1.278-1.9Q270.241,51.582,270.242,53.494Z" fill="#fff"/>
        <path id="Path_864" data-name="Path 864" d="M278.609,51.288a1.562,1.562,0,0,1,.384,1.117v3.581h-.87V52.53a1.113,1.113,0,0,0-.2-.751.762.762,0,0,0-.587-.217,1.139,1.139,0,0,0-.7.229,2.307,2.307,0,0,0-.568.652v3.543H275.2V50.994h.75l.075.74a1.921,1.921,0,0,1,.657-.625,1.681,1.681,0,0,1,.867-.227A1.385,1.385,0,0,1,278.609,51.288Z" fill="#fff"/>
        <path id="Path_865" data-name="Path 865" d="M166.543,61.19a1.457,1.457,0,0,1,.611.512,1.333,1.333,0,0,1,.219.742,1.4,1.4,0,0,1-.358.961,4.02,4.02,0,0,1-.978.773L167.7,65.75a7.223,7.223,0,0,0,.567-1.6l.814.237a6.953,6.953,0,0,1-.842,1.865l1.061,1-.625.511-.919-.891a2.709,2.709,0,0,1-.919.668,2.906,2.906,0,0,1-1.174.223,2.643,2.643,0,0,1-1.1-.219,1.753,1.753,0,0,1-.748-.619,1.628,1.628,0,0,1-.269-.933,1.657,1.657,0,0,1,.331-1.027,3.678,3.678,0,0,1,.985-.858,4.322,4.322,0,0,1-.7-.816,1.492,1.492,0,0,1-.222-.812,1.359,1.359,0,0,1,.45-1.056A1.766,1.766,0,0,1,165.637,61,2.1,2.1,0,0,1,166.543,61.19Zm-1.879,4.023a1.271,1.271,0,0,0-.229.743.984.984,0,0,0,.364.815,1.5,1.5,0,0,0,.963.295,1.842,1.842,0,0,0,.806-.172,2.371,2.371,0,0,0,.689-.51l-1.894-1.809A2.505,2.505,0,0,0,164.664,65.213Zm.36-3.337a.792.792,0,0,0-.23.587,1.076,1.076,0,0,0,.182.61,4.094,4.094,0,0,0,.567.64,3.042,3.042,0,0,0,.73-.582.965.965,0,0,0,.247-.639.812.812,0,0,0-.238-.622.887.887,0,0,0-.636-.221A.831.831,0,0,0,165.024,61.876Z" fill="#fff"/>
        <path id="Path_866" data-name="Path 866" d="M176.875,61.8a3.041,3.041,0,0,1,.9,2.542,3.157,3.157,0,0,1-.9,2.554,3.289,3.289,0,0,1-2.172.745H173.14V61.117H174.5A3.784,3.784,0,0,1,176.875,61.8Zm-2.835.035v5.094h.73a2.02,2.02,0,0,0,1.477-.559,2.82,2.82,0,0,0,.568-2.028,3.439,3.439,0,0,0-.294-1.585,1.505,1.505,0,0,0-.748-.739,2.821,2.821,0,0,0-1.07-.183Z" fill="#fff"/>
        <path id="Path_867" data-name="Path 867" d="M182.943,65.445h-3.181a1.931,1.931,0,0,0,.415,1.213,1.205,1.205,0,0,0,.929.389,2.029,2.029,0,0,0,.662-.1,2.819,2.819,0,0,0,.636-.331l.378.52a2.755,2.755,0,0,1-1.742.625,2.021,2.021,0,0,1-1.625-.683,2.788,2.788,0,0,1-.582-1.872,3.562,3.562,0,0,1,.251-1.381,2.177,2.177,0,0,1,.72-.942,1.816,1.816,0,0,1,1.1-.341,1.851,1.851,0,0,1,1.525.654,2.785,2.785,0,0,1,.53,1.809C182.961,65.146,182.956,65.294,182.943,65.445Zm-.842-.7a1.847,1.847,0,0,0-.295-1.129,1.032,1.032,0,0,0-.88-.386q-1.069,0-1.164,1.57H182.1Z" fill="#fff"/>
        <path id="Path_868" data-name="Path 868" d="M187.982,62.651l-1.695,4.994h-1.052l-1.723-4.994h.948l1.3,4.215,1.3-4.215Z" fill="#fff"/>
        <path id="Path_869" data-name="Path 869" d="M192.688,65.445h-3.181a1.943,1.943,0,0,0,.417,1.213,1.2,1.2,0,0,0,.927.389,2.035,2.035,0,0,0,.663-.1,2.772,2.772,0,0,0,.635-.331l.38.52a2.758,2.758,0,0,1-1.743.625,2.018,2.018,0,0,1-1.624-.683,2.788,2.788,0,0,1-.583-1.872,3.562,3.562,0,0,1,.252-1.381,2.173,2.173,0,0,1,.718-.942,1.826,1.826,0,0,1,1.1-.341,1.847,1.847,0,0,1,1.524.654A2.786,2.786,0,0,1,192.708,65C192.708,65.146,192.7,65.294,192.688,65.445Zm-.842-.7a1.833,1.833,0,0,0-.294-1.129,1.034,1.034,0,0,0-.881-.386q-1.068,0-1.164,1.57h2.339Z" fill="#fff"/>
        <path id="Path_870" data-name="Path 870" d="M194.333,67.469a1.117,1.117,0,0,1-.281-.811V60.643l.872-.105v6.1a.5.5,0,0,0,.073.3.278.278,0,0,0,.24.094.837.837,0,0,0,.322-.058l.228.609a1.433,1.433,0,0,1-.693.169A1.018,1.018,0,0,1,194.333,67.469Z" fill="#fff"/>
        <path id="Path_871" data-name="Path 871" d="M200.338,63.238a2.894,2.894,0,0,1,.581,1.9,3.313,3.313,0,0,1-.263,1.368,2.1,2.1,0,0,1-.768.918,2.124,2.124,0,0,1-1.193.328,2.025,2.025,0,0,1-1.64-.7,2.889,2.889,0,0,1-.586-1.906,3.3,3.3,0,0,1,.265-1.367,2.078,2.078,0,0,1,.766-.919,2.152,2.152,0,0,1,1.2-.327A2,2,0,0,1,200.338,63.238Zm-2.932,1.913q0,1.906,1.289,1.906c.857,0,1.289-.639,1.289-1.914s-.429-1.9-1.28-1.9S197.406,63.876,197.406,65.151Z" fill="#fff"/>
        <path id="Path_872" data-name="Path 872" d="M206.054,63.22a3.5,3.5,0,0,1,.446,1.923,3.2,3.2,0,0,1-.513,1.894,1.673,1.673,0,0,1-1.448.72,1.612,1.612,0,0,1-1.307-.567v2.367l-.873.1v-7.01h.75l.065.673a1.963,1.963,0,0,1,.662-.583,1.749,1.749,0,0,1,.817-.2A1.552,1.552,0,0,1,206.054,63.22Zm-.492,1.923q0-1.912-1.128-1.912a1.116,1.116,0,0,0-.672.216,2.117,2.117,0,0,0-.53.559v2.433a1.311,1.311,0,0,0,.472.451,1.3,1.3,0,0,0,.627.157C205.151,67.047,205.562,66.41,205.562,65.143Z" fill="#fff"/>
        <path id="Path_873" data-name="Path 873" d="M213.981,62.95a1.607,1.607,0,0,1,.37,1.112v3.583h-.872V64.186c0-.644-.232-.966-.7-.966a.943.943,0,0,0-.625.213,2.969,2.969,0,0,0-.55.668v3.544h-.872V64.186c0-.644-.232-.966-.7-.966a.947.947,0,0,0-.636.218,3.053,3.053,0,0,0-.539.663v3.544h-.872V62.651h.749l.076.731a1.671,1.671,0,0,1,1.44-.844,1.258,1.258,0,0,1,1.26.9,2.34,2.34,0,0,1,.647-.668,1.51,1.51,0,0,1,.84-.232A1.258,1.258,0,0,1,213.981,62.95Z" fill="#fff"/>
        <path id="Path_874" data-name="Path 874" d="M219.854,65.445h-3.182a1.949,1.949,0,0,0,.414,1.213,1.21,1.21,0,0,0,.928.389,2.047,2.047,0,0,0,.665-.1,2.787,2.787,0,0,0,.634-.331l.38.52a2.759,2.759,0,0,1-1.742.625,2.018,2.018,0,0,1-1.625-.683,2.788,2.788,0,0,1-.583-1.872,3.6,3.6,0,0,1,.25-1.381,2.215,2.215,0,0,1,.72-.942,1.827,1.827,0,0,1,1.1-.341,1.848,1.848,0,0,1,1.523.654A2.786,2.786,0,0,1,219.875,65Q219.875,65.219,219.854,65.445Zm-.842-.7a1.847,1.847,0,0,0-.294-1.129,1.04,1.04,0,0,0-.883-.386q-1.068,0-1.163,1.57h2.34Z" fill="#fff"/>
        <path id="Path_875" data-name="Path 875" d="M224.68,62.945a1.569,1.569,0,0,1,.383,1.117v3.583h-.871V64.186a1.11,1.11,0,0,0-.2-.748.753.753,0,0,0-.587-.218,1.15,1.15,0,0,0-.7.227,2.331,2.331,0,0,0-.567.654v3.544h-.873V62.651h.749l.077.739a1.979,1.979,0,0,1,.657-.625,1.691,1.691,0,0,1,.867-.227A1.4,1.4,0,0,1,224.68,62.945Z" fill="#fff"/>
        <path id="Path_876" data-name="Path 876" d="M229.335,67.416a1.908,1.908,0,0,1-1.119.341,1.312,1.312,0,0,1-.989-.365,1.446,1.446,0,0,1-.354-1.055V63.324H226v-.673h.873V61.526l.87-.1v1.23h1.184l-.094.673h-1.09V66.3a.929.929,0,0,0,.137.563.553.553,0,0,0,.46.175,1.427,1.427,0,0,0,.664-.2Z" fill="#fff"/>
        <path id="Path_877" data-name="Path 877" d="M236.38,61.624a1.781,1.781,0,0,1,.664,1.51,1.867,1.867,0,0,1-.692,1.592,2.975,2.975,0,0,1-1.837.52h-.822v2.4h-.9V61.117h1.713A3.027,3.027,0,0,1,236.38,61.624Zm-.7,2.61a1.27,1.27,0,0,0,.412-1.091,1.192,1.192,0,0,0-.412-1.013,1.923,1.923,0,0,0-1.178-.311h-.805v2.718h.784A2,2,0,0,0,235.676,64.234Z" fill="#fff"/>
        <path id="Path_878" data-name="Path 878" d="M241.472,63.238a2.894,2.894,0,0,1,.583,1.9,3.329,3.329,0,0,1-.265,1.368,2.075,2.075,0,0,1-.767.918,2.125,2.125,0,0,1-1.194.328,2.021,2.021,0,0,1-1.637-.7,2.874,2.874,0,0,1-.59-1.906,3.331,3.331,0,0,1,.266-1.367,2.071,2.071,0,0,1,.769-.919,2.137,2.137,0,0,1,1.2-.327A2,2,0,0,1,241.472,63.238Zm-2.93,1.913c0,1.271.427,1.906,1.287,1.906s1.288-.639,1.288-1.914-.425-1.9-1.279-1.9S238.542,63.876,238.542,65.151Z" fill="#fff"/>
        <path id="Path_879" data-name="Path 879" d="M243.727,67.469a1.125,1.125,0,0,1-.281-.811V60.643l.872-.105v6.1a.5.5,0,0,0,.072.3.279.279,0,0,0,.24.094.85.85,0,0,0,.324-.058l.226.609a1.421,1.421,0,0,1-.69.169A1.019,1.019,0,0,1,243.727,67.469Z" fill="#fff"/>
        <path id="Path_880" data-name="Path 880" d="M247.14,60.426a.574.574,0,0,1,.172.425.566.566,0,0,1-.172.423.616.616,0,0,1-.442.167.608.608,0,0,1-.436-.167.559.559,0,0,1-.172-.423.566.566,0,0,1,.172-.425.591.591,0,0,1,.436-.171A.6.6,0,0,1,247.14,60.426Zm0,2.225v4.994h-.87V62.651Z" fill="#fff"/>
        <path id="Path_881" data-name="Path 881" d="M251.575,62.665a2.336,2.336,0,0,1,.711.413l-.419.55a2.1,2.1,0,0,0-.515-.28,1.632,1.632,0,0,0-.555-.09,1.083,1.083,0,0,0-.941.482,2.492,2.492,0,0,0-.336,1.431,2.365,2.365,0,0,0,.331,1.4,1.1,1.1,0,0,0,.946.448,1.6,1.6,0,0,0,.539-.089,2.744,2.744,0,0,0,.551-.29l.4.567a2.373,2.373,0,0,1-1.526.551,1.987,1.987,0,0,1-1.6-.683,2.808,2.808,0,0,1-.583-1.883,3.4,3.4,0,0,1,.265-1.393,2.169,2.169,0,0,1,.752-.929,2.037,2.037,0,0,1,1.162-.331A2.519,2.519,0,0,1,251.575,62.665Z" fill="#fff"/>
        <path id="Path_882" data-name="Path 882" d="M255.466,67.673a3.348,3.348,0,0,1-.818,1.376,2.475,2.475,0,0,1-1.5.612l-.1-.682a2.661,2.661,0,0,0,.787-.245,1.334,1.334,0,0,0,.467-.414,2.85,2.85,0,0,0,.328-.675h-.293l-1.676-4.994h.927l1.336,4.358,1.307-4.358h.9Z" fill="#fff"/>
      </g>
      <g id="Group_451" data-name="Group 451">
        <rect id="Rectangle_925" data-name="Rectangle 925" width="1.093" height="29.145" transform="translate(154.735 45.182)" fill="#fff"/>
      </g>
    </g>
  </g>
</svg>
