<svg xmlns="http://www.w3.org/2000/svg" width="222.959" height="33.354" viewBox="0 0 222.959 33.354">
  <g id="Group_30" data-name="Group 30" transform="translate(-64.183 -42.355)">
    <g id="Group_29" data-name="Group 29">
      <g id="Group_28" data-name="Group 28">
        <g id="Group_25" data-name="Group 25">
          <g id="Group_18" data-name="Group 18">
            <rect id="Rectangle_10" data-name="Rectangle 10" width="4.361" height="20.748" transform="translate(101.53 48.816)" fill="#262626"/>
          </g>
          <g id="Group_19" data-name="Group 19">
            <path id="Path_22" data-name="Path 22" d="M108.011,48.816h14.956l-.686,3.463h-4.956V69.564h-4.239V52.279h-5.075Z" fill="#262626"/>
          </g>
          <g id="Group_24" data-name="Group 24">
            <g id="Group_20" data-name="Group 20">
              <path id="Path_23" data-name="Path 23" d="M125.024,48.778h4.18c1.2,0,2.778.06,3.61.12a7.224,7.224,0,0,1,4.541,2.077c1.908,1.891,2.836,4.572,2.836,8.332a11.879,11.879,0,0,1-2.092,7.128,7.3,7.3,0,0,1-5.044,3.009c-.775.06-1.763.12-2.984.12h-5.047Zm4.239,3.309V66.134H131.5c2.746,0,4-2.015,4-6.439,0-2.434-.209-4.479-1.044-5.864a3.427,3.427,0,0,0-3.284-1.744Z" fill="#262626"/>
            </g>
            <g id="Group_21" data-name="Group 21">
              <path id="Path_24" data-name="Path 24" d="M142.253,48.757h5.463c3.52,0,4.6.356,5.762,1.013a5.828,5.828,0,0,1,2.984,5.373,6.458,6.458,0,0,1-3.582,6.092,8.61,8.61,0,0,1-4.148.686h-2.3v7.643h-4.178Zm4.178,3.371v6.388h2.18c1.7,0,2.21-.208,2.778-1.072a3.947,3.947,0,0,0,.507-2.21c0-1.942-1.047-3.106-2.809-3.106Z" fill="#262626"/>
            </g>
            <g id="Group_22" data-name="Group 22">
              <path id="Path_25" data-name="Path 25" d="M85.115,42.909l-.8,3.036,0,0v0l-.535,8.02-1.742.6h0l-.461,1.737a2.809,2.809,0,1,1-1.434,5.432l-.455,1.723.008-.005L80.9,64.845,77.412,72.07,76.6,75.152a16.675,16.675,0,0,0,8.518-32.243m1.214,20.278,9.223.614a15.381,15.381,0,0,1-6.187,8.125Zm8.292-11.175A15.4,15.4,0,0,1,96,62.111l-8.315-4.018Zm-.708,10.454-8.022-.533-.6-1.731,0-.008.022-.022,1.376-1.2Zm-7.428-4.95-1.655-.8-.009-.005v-.03l.124-1.821,7.586-2.642Zm-1.6,1.4a3.884,3.884,0,0,0-.12-.872l.719.345Zm-.317,2.929-.779-.053a3.558,3.558,0,0,0,.518-.687Zm-1.408,1.148.005-.015.017,0L85,63.1l2.645,7.588L82.357,64.65Zm-.245-7.426.778-.268-.057.813a3.98,3.98,0,0,0-.721-.545m2.119-2.034.62-9.193a15.391,15.391,0,0,1,8.088,6.165Zm-4.071,9.523a4.227,4.227,0,0,0,.865-.114l-.346.707Zm.818,2.788,6.09,6.949A15.4,15.4,0,0,1,77.763,74.17Z" fill="#262626"/>
            </g>
            <g id="Group_23" data-name="Group 23">
              <path id="Path_26" data-name="Path 26" d="M77.146,56.19l.264.755a3.91,3.91,0,0,1,.537-.7Zm-.906,3.457.7.339a4.128,4.128,0,0,1-.112-.854Zm2.308-4.59.015-.029.795-1.644L74.064,47.34l2.645,7.594,1.83.123Zm-1.776,8.12L76.9,61.34l0-.016-.016-.009-1.645-.793-6.045,5.292ZM84.491,42.76a16.617,16.617,0,0,0-11.456,1.546l6.9,7.884ZM75.039,59.07l1.383-1.21.008-.005-.01-.029-.6-1.724L67.8,55.568Zm5.194-4.685-.355.735a4.08,4.08,0,0,1,.9-.117Zm-15.319-.234,10.467.694-3.445-9.9a16.575,16.575,0,0,0-7.024,9.212h0l0-.01m13.166,7.8-.05.784.744-.255a4.367,4.367,0,0,1-.694-.529M85.113,42.9l-.8,3.038,0,0,0,.007-3.5,7.237,1.218,1.387h0l-.463,1.738a2.808,2.808,0,1,0-1.431,5.43l-.458,1.724v-.011l-1.739.6L77.41,72.07,76.6,75.153l0,0,8.518-32.243ZM66.775,67.953a16.587,16.587,0,0,0,9.218,7.022L76.686,64.5ZM64.591,55.375a16.6,16.6,0,0,0,1.553,11.484l7.9-6.914Z" fill="#262626"/>
            </g>
          </g>
        </g>
        <g id="Group_26" data-name="Group 26">
          <path id="Path_27" data-name="Path 27" d="M172.775,49.46v6.526h-.9V49.46Z" fill="#262626"/>
          <path id="Path_28" data-name="Path 28" d="M178.037,51.288a1.579,1.579,0,0,1,.382,1.117v3.581h-.871V52.53a1.114,1.114,0,0,0-.2-.751.762.762,0,0,0-.586-.217,1.141,1.141,0,0,0-.7.229,2.354,2.354,0,0,0-.568.652v3.543h-.872V50.994h.75l.075.74a1.909,1.909,0,0,1,.659-.625,1.676,1.676,0,0,1,.865-.227A1.391,1.391,0,0,1,178.037,51.288Z" fill="#262626"/>
          <path id="Path_29" data-name="Path 29" d="M182.446,51.023a2.7,2.7,0,0,1,.776.426l-.37.55a3.019,3.019,0,0,0-.648-.322,1.979,1.979,0,0,0-.649-.1,1.167,1.167,0,0,0-.674.173.558.558,0,0,0-.245.48.551.551,0,0,0,.232.474,2.7,2.7,0,0,0,.837.33,3,3,0,0,1,1.247.568,1.244,1.244,0,0,1,.413.987,1.277,1.277,0,0,1-.576,1.126,2.409,2.409,0,0,1-1.4.39,2.757,2.757,0,0,1-1.885-.656l.463-.531a2.261,2.261,0,0,0,1.4.485,1.337,1.337,0,0,0,.782-.2.645.645,0,0,0,.289-.555.748.748,0,0,0-.1-.413.876.876,0,0,0-.359-.274,5.068,5.068,0,0,0-.75-.251,2.56,2.56,0,0,1-1.152-.556,1.21,1.21,0,0,1-.353-.892,1.161,1.161,0,0,1,.231-.705,1.511,1.511,0,0,1,.645-.492,2.3,2.3,0,0,1,.924-.175A2.806,2.806,0,0,1,182.446,51.023Z" fill="#262626"/>
          <path id="Path_30" data-name="Path 30" d="M187.115,55.758A1.919,1.919,0,0,1,186,56.1a1.322,1.322,0,0,1-.99-.366,1.461,1.461,0,0,1-.354-1.057V51.667h-.87v-.673h.87V49.866l.872-.1v1.232h1.181l-.092.673h-1.089V54.64a.932.932,0,0,0,.136.565.55.55,0,0,0,.461.175,1.434,1.434,0,0,0,.662-.2Z" fill="#262626"/>
          <path id="Path_31" data-name="Path 31" d="M188.886,48.769a.59.59,0,0,1,.169.426.567.567,0,0,1-.169.421.619.619,0,0,1-.447.166.6.6,0,0,1-.434-.166.558.558,0,0,1-.172-.421.581.581,0,0,1,.172-.426.588.588,0,0,1,.434-.169A.609.609,0,0,1,188.886,48.769Zm0,2.225v4.992h-.872V50.994Z" fill="#262626"/>
          <path id="Path_32" data-name="Path 32" d="M193.2,55.758a1.912,1.912,0,0,1-1.117.343,1.315,1.315,0,0,1-.99-.366,1.457,1.457,0,0,1-.354-1.057V51.667h-.872v-.673h.872V49.866l.87-.1v1.232H192.8l-.093.673h-1.091V54.64a.938.938,0,0,0,.137.565.552.552,0,0,0,.461.175,1.427,1.427,0,0,0,.661-.2Z" fill="#262626"/>
          <path id="Path_33" data-name="Path 33" d="M197.816,55.986h-.747L197,55.21a1.9,1.9,0,0,1-.651.676,1.762,1.762,0,0,1-.9.215,1.326,1.326,0,0,1-1.022-.4,1.586,1.586,0,0,1-.371-1.126V50.994h.872v3.488a1.13,1.13,0,0,0,.18.723.734.734,0,0,0,.588.212,1.486,1.486,0,0,0,1.25-.861V50.994h.87Z" fill="#262626"/>
          <path id="Path_34" data-name="Path 34" d="M202.136,55.758a1.912,1.912,0,0,1-1.119.343,1.317,1.317,0,0,1-.988-.366,1.453,1.453,0,0,1-.356-1.057V51.667H198.8v-.673h.871V49.866l.872-.1v1.232h1.183l-.094.673h-1.089V54.64a.924.924,0,0,0,.138.565.547.547,0,0,0,.459.175,1.441,1.441,0,0,0,.663-.2Z" fill="#262626"/>
          <path id="Path_35" data-name="Path 35" d="M206.646,53.79h-3.184A1.956,1.956,0,0,0,203.878,55a1.211,1.211,0,0,0,.93.388,1.981,1.981,0,0,0,.662-.106,2.56,2.56,0,0,0,.635-.332l.378.522a2.752,2.752,0,0,1-1.742.627,2.025,2.025,0,0,1-1.625-.684,2.8,2.8,0,0,1-.581-1.874,3.515,3.515,0,0,1,.252-1.377,2.132,2.132,0,0,1,.718-.944,1.822,1.822,0,0,1,1.1-.34,1.849,1.849,0,0,1,1.525.652,2.8,2.8,0,0,1,.529,1.81C206.662,53.488,206.657,53.637,206.646,53.79Zm-.844-.7a1.843,1.843,0,0,0-.293-1.127,1.036,1.036,0,0,0-.883-.388q-1.07,0-1.164,1.573h2.34Z" fill="#262626"/>
          <path id="Path_36" data-name="Path 36" d="M211.694,49.757a.756.756,0,0,0-.172.547v.69h1.213l-.1.673h-1.117v4.319h-.87V51.667h-.891v-.673h.891v-.681a1.363,1.363,0,0,1,.411-1.039,1.6,1.6,0,0,1,1.151-.392,2.722,2.722,0,0,1,.612.063,3.51,3.51,0,0,1,.581.192l-.274.635a2.131,2.131,0,0,0-.872-.189A.772.772,0,0,0,211.694,49.757Z" fill="#262626"/>
          <path id="Path_37" data-name="Path 37" d="M217.154,51.582a2.886,2.886,0,0,1,.582,1.9,3.316,3.316,0,0,1-.266,1.368,2.069,2.069,0,0,1-.766.919,2.144,2.144,0,0,1-1.195.328,2.018,2.018,0,0,1-1.638-.7,2.875,2.875,0,0,1-.586-1.9,3.281,3.281,0,0,1,.265-1.368,2.087,2.087,0,0,1,.768-.92,2.171,2.171,0,0,1,1.2-.324A2.005,2.005,0,0,1,217.154,51.582Zm-2.932,1.912q0,1.906,1.287,1.9t1.289-1.913q0-1.905-1.279-1.9Q214.223,51.582,214.222,53.494Z" fill="#262626"/>
          <path id="Path_38" data-name="Path 38" d="M221.837,50.938l-.162.853a1.768,1.768,0,0,0-.434-.057.918.918,0,0,0-.748.342,2.516,2.516,0,0,0-.446,1.06v2.85h-.872V50.994h.748l.085,1.015a1.927,1.927,0,0,1,.54-.846,1.216,1.216,0,0,1,.8-.281A2.028,2.028,0,0,1,221.837,50.938Z" fill="#262626"/>
          <path id="Path_39" data-name="Path 39" d="M229.244,49.46l-.1.767h-1.81v5.759h-.9V50.227h-1.856V49.46Z" fill="#262626"/>
          <path id="Path_40" data-name="Path 40" d="M232.616,50.938l-.162.853a1.781,1.781,0,0,0-.435-.057.922.922,0,0,0-.748.342,2.491,2.491,0,0,0-.445,1.06v2.85h-.872V50.994h.748l.085,1.015a1.918,1.918,0,0,1,.54-.846,1.213,1.213,0,0,1,.795-.281A2.042,2.042,0,0,1,232.616,50.938Z" fill="#262626"/>
          <path id="Path_41" data-name="Path 41" d="M236.744,55.27a.619.619,0,0,0,.314.222l-.2.609a1.348,1.348,0,0,1-.625-.219,1,1,0,0,1-.35-.532,1.674,1.674,0,0,1-1.486.751,1.587,1.587,0,0,1-1.165-.419,1.45,1.45,0,0,1-.427-1.089,1.435,1.435,0,0,1,.571-1.222A2.693,2.693,0,0,1,235,52.945h.768v-.368a.963.963,0,0,0-.255-.757,1.152,1.152,0,0,0-.787-.228,4.349,4.349,0,0,0-1.344.265l-.221-.635a5.028,5.028,0,0,1,1.727-.34,1.786,1.786,0,0,1,1.315.431,1.64,1.64,0,0,1,.437,1.225v2.284A.785.785,0,0,0,236.744,55.27Zm-.975-.6V53.523h-.653q-1.383,0-1.383,1.024a.937.937,0,0,0,.218.673.854.854,0,0,0,.643.225A1.3,1.3,0,0,0,235.769,54.671Z" fill="#262626"/>
          <path id="Path_42" data-name="Path 42" d="M241.844,51.288a1.562,1.562,0,0,1,.384,1.117v3.581h-.871V52.53a1.137,1.137,0,0,0-.2-.751.772.772,0,0,0-.589-.217,1.141,1.141,0,0,0-.7.229,2.322,2.322,0,0,0-.568.652v3.543h-.873V50.994h.75l.075.74a1.92,1.92,0,0,1,.657-.625,1.687,1.687,0,0,1,.868-.227A1.382,1.382,0,0,1,241.844,51.288Z" fill="#262626"/>
          <path id="Path_43" data-name="Path 43" d="M246.253,51.023a2.637,2.637,0,0,1,.777.426l-.368.55a3.026,3.026,0,0,0-.649-.322,1.972,1.972,0,0,0-.65-.1,1.16,1.16,0,0,0-.672.173.6.6,0,0,0-.014.954,2.718,2.718,0,0,0,.839.33,3.005,3.005,0,0,1,1.245.568,1.239,1.239,0,0,1,.411.987,1.274,1.274,0,0,1-.572,1.126,2.421,2.421,0,0,1-1.4.39,2.761,2.761,0,0,1-1.886-.656l.465-.531a2.252,2.252,0,0,0,1.4.485,1.334,1.334,0,0,0,.781-.2.643.643,0,0,0,.287-.555.748.748,0,0,0-.1-.413.884.884,0,0,0-.361-.274,4.929,4.929,0,0,0-.747-.251,2.55,2.55,0,0,1-1.151-.556,1.2,1.2,0,0,1-.354-.892,1.18,1.18,0,0,1,.23-.705,1.511,1.511,0,0,1,.645-.492,2.3,2.3,0,0,1,.924-.175A2.781,2.781,0,0,1,246.253,51.023Z" fill="#262626"/>
          <path id="Path_44" data-name="Path 44" d="M252.1,51.562a3.509,3.509,0,0,1,.445,1.924,3.22,3.22,0,0,1-.512,1.894,1.674,1.674,0,0,1-1.449.721,1.609,1.609,0,0,1-1.308-.57V57.9l-.871.1V50.994h.75l.065.673a1.887,1.887,0,0,1,.664-.581,1.708,1.708,0,0,1,.813-.2A1.557,1.557,0,0,1,252.1,51.562Zm-.494,1.924q0-1.911-1.127-1.913a1.129,1.129,0,0,0-.672.218,2.145,2.145,0,0,0-.531.557v2.435a1.353,1.353,0,0,0,.472.451,1.291,1.291,0,0,0,.625.156C251.2,55.39,251.6,54.753,251.6,53.486Z" fill="#262626"/>
          <path id="Path_45" data-name="Path 45" d="M257.539,51.582a2.88,2.88,0,0,1,.582,1.9,3.332,3.332,0,0,1-.264,1.368,2.086,2.086,0,0,1-.768.919,2.133,2.133,0,0,1-1.193.328,2.016,2.016,0,0,1-1.638-.7,2.87,2.87,0,0,1-.588-1.9,3.312,3.312,0,0,1,.266-1.368,2.087,2.087,0,0,1,.768-.92,2.171,2.171,0,0,1,1.2-.324A2,2,0,0,1,257.539,51.582Zm-2.931,1.912q0,1.906,1.288,1.9t1.289-1.913q0-1.905-1.28-1.9Q254.606,51.582,254.608,53.494Z" fill="#262626"/>
          <path id="Path_46" data-name="Path 46" d="M262.224,50.938l-.161.853a1.791,1.791,0,0,0-.437-.057.922.922,0,0,0-.748.342,2.5,2.5,0,0,0-.445,1.06v2.85h-.872V50.994h.749l.084,1.015a1.919,1.919,0,0,1,.541-.846,1.21,1.21,0,0,1,.8-.281A2.031,2.031,0,0,1,262.224,50.938Z" fill="#262626"/>
          <path id="Path_47" data-name="Path 47" d="M265.736,55.758a1.908,1.908,0,0,1-1.117.343,1.316,1.316,0,0,1-.989-.366,1.449,1.449,0,0,1-.356-1.057V51.667h-.87v-.673h.87V49.866l.872-.1v1.232h1.183l-.094.673h-1.089V54.64a.925.925,0,0,0,.137.565.549.549,0,0,0,.46.175,1.438,1.438,0,0,0,.662-.2Z" fill="#262626"/>
          <path id="Path_48" data-name="Path 48" d="M270.037,55.27a.616.616,0,0,0,.313.222l-.2.609a1.344,1.344,0,0,1-.625-.219,1,1,0,0,1-.35-.532,1.676,1.676,0,0,1-1.487.751,1.594,1.594,0,0,1-1.166-.419,1.46,1.46,0,0,1-.425-1.089,1.431,1.431,0,0,1,.572-1.222,2.691,2.691,0,0,1,1.625-.426h.767v-.368a.967.967,0,0,0-.256-.757,1.149,1.149,0,0,0-.784-.228,4.355,4.355,0,0,0-1.346.265l-.217-.635a4.993,4.993,0,0,1,1.722-.34,1.79,1.79,0,0,1,1.316.431,1.644,1.644,0,0,1,.437,1.225v2.284A.776.776,0,0,0,270.037,55.27Zm-.976-.6V53.523h-.653q-1.383,0-1.383,1.024a.924.924,0,0,0,.219.673.852.852,0,0,0,.642.225A1.3,1.3,0,0,0,269.061,54.671Z" fill="#262626"/>
          <path id="Path_49" data-name="Path 49" d="M274.243,55.758a1.924,1.924,0,0,1-1.118.343,1.322,1.322,0,0,1-.991-.366,1.452,1.452,0,0,1-.354-1.057V51.667h-.872v-.673h.872V49.866l.872-.1v1.232h1.182l-.093.673h-1.089V54.64a.933.933,0,0,0,.135.565.552.552,0,0,0,.459.175,1.452,1.452,0,0,0,.666-.2Z" fill="#262626"/>
          <path id="Path_50" data-name="Path 50" d="M276.013,48.769a.583.583,0,0,1,.17.426.561.561,0,0,1-.17.421.614.614,0,0,1-.445.166.6.6,0,0,1-.435-.166.558.558,0,0,1-.172-.421.581.581,0,0,1,.172-.426.589.589,0,0,1,.435-.169A.6.6,0,0,1,276.013,48.769Zm0,2.225v4.992h-.872V50.994Z" fill="#262626"/>
          <path id="Path_51" data-name="Path 51" d="M281.322,51.582a2.88,2.88,0,0,1,.583,1.9,3.316,3.316,0,0,1-.266,1.368,2.067,2.067,0,0,1-.768.919,2.135,2.135,0,0,1-1.193.328,2.018,2.018,0,0,1-1.639-.7,2.88,2.88,0,0,1-.585-1.9,3.313,3.313,0,0,1,.265-1.368,2.085,2.085,0,0,1,.767-.92,2.176,2.176,0,0,1,1.2-.324A2,2,0,0,1,281.322,51.582Zm-2.931,1.912q0,1.906,1.287,1.9t1.289-1.913c0-1.27-.428-1.9-1.278-1.9S278.391,52.218,278.391,53.494Z" fill="#262626"/>
          <path id="Path_52" data-name="Path 52" d="M286.758,51.288a1.562,1.562,0,0,1,.384,1.117v3.581h-.87V52.53a1.119,1.119,0,0,0-.2-.751.763.763,0,0,0-.587-.217,1.137,1.137,0,0,0-.7.229,2.293,2.293,0,0,0-.569.652v3.543h-.872V50.994h.75l.075.74a1.914,1.914,0,0,1,.658-.625,1.676,1.676,0,0,1,.867-.227A1.385,1.385,0,0,1,286.758,51.288Z" fill="#262626"/>
          <path id="Path_53" data-name="Path 53" d="M174.693,61.19a1.454,1.454,0,0,1,.61.512,1.325,1.325,0,0,1,.219.742,1.4,1.4,0,0,1-.358.961,4.02,4.02,0,0,1-.978.773l1.667,1.572a7.223,7.223,0,0,0,.567-1.6l.815.237a6.984,6.984,0,0,1-.843,1.865l1.062,1-.625.511-.919-.891a2.719,2.719,0,0,1-.919.668,2.914,2.914,0,0,1-1.175.223,2.646,2.646,0,0,1-1.1-.219,1.753,1.753,0,0,1-.748-.619,1.758,1.758,0,0,1,.063-1.96,3.673,3.673,0,0,1,.984-.858,4.36,4.36,0,0,1-.7-.816,1.492,1.492,0,0,1-.222-.812,1.362,1.362,0,0,1,.45-1.056A1.767,1.767,0,0,1,173.787,61,2.1,2.1,0,0,1,174.693,61.19Zm-1.88,4.023a1.279,1.279,0,0,0-.229.743.982.982,0,0,0,.365.815,1.5,1.5,0,0,0,.963.295,1.841,1.841,0,0,0,.8-.172,2.387,2.387,0,0,0,.69-.51l-1.894-1.809A2.511,2.511,0,0,0,172.813,65.213Zm.36-3.337a.791.791,0,0,0-.229.587,1.075,1.075,0,0,0,.181.61,4.11,4.11,0,0,0,.568.64,3.054,3.054,0,0,0,.729-.582.965.965,0,0,0,.247-.639.812.812,0,0,0-.238-.622.887.887,0,0,0-.636-.221A.834.834,0,0,0,173.173,61.876Z" fill="#262626"/>
          <path id="Path_54" data-name="Path 54" d="M185.025,61.8a3.044,3.044,0,0,1,.9,2.542,3.16,3.16,0,0,1-.9,2.554,3.294,3.294,0,0,1-2.173.745h-1.563V61.117h1.365A3.786,3.786,0,0,1,185.025,61.8Zm-2.836.035v5.094h.73a2.019,2.019,0,0,0,1.477-.559,2.816,2.816,0,0,0,.568-2.028,3.426,3.426,0,0,0-.294-1.585,1.505,1.505,0,0,0-.748-.739,2.814,2.814,0,0,0-1.07-.183Z" fill="#262626"/>
          <path id="Path_55" data-name="Path 55" d="M191.092,65.445h-3.18a1.925,1.925,0,0,0,.415,1.213,1.2,1.2,0,0,0,.928.389,2.025,2.025,0,0,0,.662-.1,2.8,2.8,0,0,0,.636-.331l.378.52a2.751,2.751,0,0,1-1.742.625,2.024,2.024,0,0,1-1.625-.683,2.788,2.788,0,0,1-.582-1.872,3.562,3.562,0,0,1,.251-1.381,2.179,2.179,0,0,1,.721-.942,1.811,1.811,0,0,1,1.1-.341,1.851,1.851,0,0,1,1.525.654A2.786,2.786,0,0,1,191.111,65C191.111,65.146,191.1,65.294,191.092,65.445Zm-.842-.7a1.84,1.84,0,0,0-.295-1.129,1.031,1.031,0,0,0-.879-.386q-1.069,0-1.164,1.57h2.338Z" fill="#262626"/>
          <path id="Path_56" data-name="Path 56" d="M196.131,62.651l-1.695,4.994h-1.052l-1.722-4.994h.948l1.3,4.215,1.3-4.215Z" fill="#262626"/>
          <path id="Path_57" data-name="Path 57" d="M200.837,65.445h-3.18a1.937,1.937,0,0,0,.417,1.213,1.2,1.2,0,0,0,.926.389,2.031,2.031,0,0,0,.663-.1,2.732,2.732,0,0,0,.635-.331l.38.52a2.756,2.756,0,0,1-1.743.625,2.02,2.02,0,0,1-1.624-.683,2.788,2.788,0,0,1-.583-1.872,3.562,3.562,0,0,1,.252-1.381,2.167,2.167,0,0,1,.719-.942,1.821,1.821,0,0,1,1.1-.341,1.851,1.851,0,0,1,1.525.654,2.791,2.791,0,0,1,.53,1.809C200.857,65.146,200.852,65.294,200.837,65.445Zm-.841-.7a1.84,1.84,0,0,0-.294-1.129,1.036,1.036,0,0,0-.881-.386q-1.069,0-1.164,1.57H200Z" fill="#262626"/>
          <path id="Path_58" data-name="Path 58" d="M202.482,67.469a1.116,1.116,0,0,1-.28-.811V60.643l.872-.105v6.1a.5.5,0,0,0,.072.3.279.279,0,0,0,.24.094.833.833,0,0,0,.322-.058l.228.609a1.429,1.429,0,0,1-.692.169A1.018,1.018,0,0,1,202.482,67.469Z" fill="#262626"/>
          <path id="Path_59" data-name="Path 59" d="M208.488,63.238a2.9,2.9,0,0,1,.581,1.9,3.313,3.313,0,0,1-.264,1.368,2.1,2.1,0,0,1-.768.918,2.121,2.121,0,0,1-1.193.328,2.025,2.025,0,0,1-1.64-.7,2.889,2.889,0,0,1-.585-1.906,3.3,3.3,0,0,1,.264-1.367,2.073,2.073,0,0,1,.767-.919,2.149,2.149,0,0,1,1.2-.327A2.006,2.006,0,0,1,208.488,63.238Zm-2.933,1.913q0,1.906,1.289,1.906t1.289-1.914c0-1.269-.429-1.9-1.28-1.9S205.555,63.876,205.555,65.151Z" fill="#262626"/>
          <path id="Path_60" data-name="Path 60" d="M214.2,63.22a3.511,3.511,0,0,1,.445,1.923,3.2,3.2,0,0,1-.513,1.894,1.673,1.673,0,0,1-1.448.72,1.614,1.614,0,0,1-1.307-.567v2.367l-.873.1v-7.01h.75l.066.673a1.944,1.944,0,0,1,.662-.583,1.745,1.745,0,0,1,.816-.2A1.554,1.554,0,0,1,214.2,63.22Zm-.493,1.923q0-1.912-1.128-1.912a1.113,1.113,0,0,0-.671.216,2.12,2.12,0,0,0-.531.559v2.433a1.311,1.311,0,0,0,.472.451,1.3,1.3,0,0,0,.627.157C213.3,67.047,213.711,66.41,213.711,65.143Z" fill="#262626"/>
          <path id="Path_61" data-name="Path 61" d="M222.13,62.95a1.607,1.607,0,0,1,.37,1.112v3.583h-.872V64.186c0-.644-.232-.966-.7-.966a.944.944,0,0,0-.625.213,3,3,0,0,0-.55.668v3.544h-.872V64.186c0-.644-.232-.966-.7-.966a.947.947,0,0,0-.636.218,3.082,3.082,0,0,0-.539.663v3.544h-.872V62.651h.749l.076.731a1.671,1.671,0,0,1,1.44-.844,1.261,1.261,0,0,1,1.261.9,2.337,2.337,0,0,1,.646-.668,1.512,1.512,0,0,1,.84-.232A1.258,1.258,0,0,1,222.13,62.95Z" fill="#262626"/>
          <path id="Path_62" data-name="Path 62" d="M228,65.445h-3.181a1.937,1.937,0,0,0,.414,1.213,1.208,1.208,0,0,0,.927.389,2.053,2.053,0,0,0,.666-.1,2.761,2.761,0,0,0,.633-.331l.38.52a2.759,2.759,0,0,1-1.742.625,2.021,2.021,0,0,1-1.625-.683,2.788,2.788,0,0,1-.583-1.872,3.6,3.6,0,0,1,.25-1.381,2.209,2.209,0,0,1,.721-.942,1.822,1.822,0,0,1,1.1-.341,1.85,1.85,0,0,1,1.524.654A2.792,2.792,0,0,1,228.024,65Q228.024,65.219,228,65.445Zm-.841-.7a1.854,1.854,0,0,0-.294-1.129,1.043,1.043,0,0,0-.883-.386q-1.069,0-1.163,1.57h2.34Z" fill="#262626"/>
          <path id="Path_63" data-name="Path 63" d="M232.829,62.945a1.569,1.569,0,0,1,.383,1.117v3.583h-.871V64.186a1.1,1.1,0,0,0-.2-.748.753.753,0,0,0-.587-.218,1.149,1.149,0,0,0-.7.227,2.329,2.329,0,0,0-.566.654v3.544h-.874V62.651h.749l.078.739a1.967,1.967,0,0,1,.656-.625,1.7,1.7,0,0,1,.867-.227A1.4,1.4,0,0,1,232.829,62.945Z" fill="#262626"/>
          <path id="Path_64" data-name="Path 64" d="M237.485,67.416a1.908,1.908,0,0,1-1.119.341,1.316,1.316,0,0,1-.99-.365,1.446,1.446,0,0,1-.354-1.055V63.324h-.872v-.673h.872V61.526l.87-.1v1.23h1.185l-.1.673h-1.09V66.3a.922.922,0,0,0,.138.563.552.552,0,0,0,.46.175,1.43,1.43,0,0,0,.664-.2Z" fill="#262626"/>
          <path id="Path_65" data-name="Path 65" d="M244.53,61.624a1.784,1.784,0,0,1,.664,1.51,1.868,1.868,0,0,1-.693,1.592,2.975,2.975,0,0,1-1.837.52h-.822v2.4h-.9V61.117h1.714A3.031,3.031,0,0,1,244.53,61.624Zm-.7,2.61a1.273,1.273,0,0,0,.412-1.091,1.2,1.2,0,0,0-.412-1.013,1.927,1.927,0,0,0-1.179-.311h-.805v2.718h.784A2,2,0,0,0,243.826,64.234Z" fill="#262626"/>
          <path id="Path_66" data-name="Path 66" d="M249.621,63.238a2.894,2.894,0,0,1,.583,1.9,3.313,3.313,0,0,1-.265,1.368,2.075,2.075,0,0,1-.767.918,2.125,2.125,0,0,1-1.194.328,2.023,2.023,0,0,1-1.637-.7,2.879,2.879,0,0,1-.59-1.906,3.331,3.331,0,0,1,.266-1.367,2.079,2.079,0,0,1,.77-.919,2.135,2.135,0,0,1,1.2-.327A2,2,0,0,1,249.621,63.238Zm-2.93,1.913q0,1.906,1.287,1.906t1.288-1.914q0-1.9-1.278-1.9C247.121,63.238,246.691,63.876,246.691,65.151Z" fill="#262626"/>
          <path id="Path_67" data-name="Path 67" d="M251.876,67.469a1.125,1.125,0,0,1-.281-.811V60.643l.872-.105v6.1a.508.508,0,0,0,.072.3.28.28,0,0,0,.241.094.845.845,0,0,0,.323-.058l.226.609a1.421,1.421,0,0,1-.69.169A1.021,1.021,0,0,1,251.876,67.469Z" fill="#262626"/>
          <path id="Path_68" data-name="Path 68" d="M255.289,60.426a.57.57,0,0,1,.172.425.562.562,0,0,1-.172.423.614.614,0,0,1-.442.167.6.6,0,0,1-.435-.167.555.555,0,0,1-.172-.423.562.562,0,0,1,.172-.425.587.587,0,0,1,.435-.171A.6.6,0,0,1,255.289,60.426Zm0,2.225v4.994h-.87V62.651Z" fill="#262626"/>
          <path id="Path_69" data-name="Path 69" d="M259.724,62.665a2.336,2.336,0,0,1,.711.413l-.419.55a2.1,2.1,0,0,0-.515-.28,1.63,1.63,0,0,0-.554-.09,1.084,1.084,0,0,0-.942.482,2.5,2.5,0,0,0-.336,1.431,2.372,2.372,0,0,0,.331,1.4,1.106,1.106,0,0,0,.947.448,1.608,1.608,0,0,0,.539-.089,2.77,2.77,0,0,0,.551-.29l.4.567a2.372,2.372,0,0,1-1.525.551,1.989,1.989,0,0,1-1.6-.683,2.808,2.808,0,0,1-.583-1.883A3.4,3.4,0,0,1,257,63.8a2.16,2.16,0,0,1,.751-.929,2.041,2.041,0,0,1,1.163-.331A2.517,2.517,0,0,1,259.724,62.665Z" fill="#262626"/>
          <path id="Path_70" data-name="Path 70" d="M263.616,67.673a3.36,3.36,0,0,1-.819,1.376,2.47,2.47,0,0,1-1.5.612l-.094-.682a2.671,2.671,0,0,0,.787-.245,1.34,1.34,0,0,0,.466-.414,2.849,2.849,0,0,0,.329-.675h-.293l-1.677-4.994h.928l1.336,4.358,1.306-4.358h.9Z" fill="#262626"/>
        </g>
        <g id="Group_27" data-name="Group 27">
          <rect id="Rectangle_11" data-name="Rectangle 11" width="1.093" height="29.145" transform="translate(162.884 45.182)" fill="#262626"/>
        </g>
      </g>
    </g>
  </g>
</svg>
